<mxfile host="app.diagrams.net" modified="2020-08-25T06:49:55.451Z" agent="5.0 (Windows NT 10.0; Win64; x64) AppleWebKit/537.36 (KHTML, like Gecko) Chrome/84.0.4147.125 Safari/537.36" etag="GVBRI82AE4uwoDwTCK88" version="13.6.2" type="github">
  <diagram id="Af-E0rmEuBw-firK7_nA" name="Page-1">
    <mxGraphModel dx="1422" dy="762" grid="1" gridSize="10" guides="1" tooltips="1" connect="1" arrows="1" fold="1" page="1" pageScale="1" pageWidth="850" pageHeight="1100" math="0" shadow="0">
      <root>
        <mxCell id="0" />
        <mxCell id="1" parent="0" />
        <mxCell id="HLEY5dHJLPrmfTfhx0Ch-1" value="" style="rounded=0;whiteSpace=wrap;html=1;" vertex="1" parent="1">
          <mxGeometry x="110" y="320" width="380" height="60" as="geometry" />
        </mxCell>
        <mxCell id="HLEY5dHJLPrmfTfhx0Ch-2" value="job1" style="ellipse;whiteSpace=wrap;html=1;aspect=fixed;" vertex="1" parent="1">
          <mxGeometry x="130" y="320" width="60" height="60" as="geometry" />
        </mxCell>
        <mxCell id="HLEY5dHJLPrmfTfhx0Ch-4" value="job2" style="ellipse;whiteSpace=wrap;html=1;aspect=fixed;" vertex="1" parent="1">
          <mxGeometry x="200" y="320" width="60" height="60" as="geometry" />
        </mxCell>
        <mxCell id="HLEY5dHJLPrmfTfhx0Ch-5" value="" style="ellipse;whiteSpace=wrap;html=1;aspect=fixed;" vertex="1" parent="1">
          <mxGeometry x="270" y="320" width="60" height="60" as="geometry" />
        </mxCell>
        <mxCell id="HLEY5dHJLPrmfTfhx0Ch-6" value="" style="ellipse;whiteSpace=wrap;html=1;aspect=fixed;" vertex="1" parent="1">
          <mxGeometry x="340" y="320" width="60" height="60" as="geometry" />
        </mxCell>
        <mxCell id="HLEY5dHJLPrmfTfhx0Ch-7" value="jobN" style="ellipse;whiteSpace=wrap;html=1;aspect=fixed;" vertex="1" parent="1">
          <mxGeometry x="410" y="320" width="60" height="60" as="geometry" />
        </mxCell>
      </root>
    </mxGraphModel>
  </diagram>
</mxfile>
